HIERARCHY
ROOT Hips
{
 OFFSET 0.000000 0.000000 0.000000
 CHANNELS 6 Xposition Yposition Zposition Yrotation Xrotation Zrotation
 JOINT Chest
 {
  OFFSET 0.000000 9.588913 -0.003946
  CHANNELS 3 Yrotation Xrotation Zrotation
  JOINT Chest2
  {
   OFFSET 0.000000 9.541882 0.008053
   CHANNELS 3 Yrotation Xrotation Zrotation
   JOINT Chest3
   {
    OFFSET 0.000000 9.501360 0.000000
    CHANNELS 3 Yrotation Xrotation Zrotation
    JOINT Chest4
    {
     OFFSET 0.000000 9.491660 0.000000
     CHANNELS 3 Yrotation Xrotation Zrotation
     JOINT Neck
     {
      OFFSET 0.000000 14.331917 0.000000
      CHANNELS 3 Yrotation Xrotation Zrotation
      JOINT Head
      {
       OFFSET 0.000000 8.884799 0.017034
       CHANNELS 3 Yrotation Xrotation Zrotation
       End Site
       {
        OFFSET 0.000000 16.896195 0.008993
       }
      }
     }
     JOINT RightCollar
     {
      OFFSET -2.923010 9.499495 0.000000
      CHANNELS 3 Yrotation Xrotation Zrotation
      JOINT RightShoulder
      {
       OFFSET -13.795216 0.000000 0.000000
       CHANNELS 3 Yrotation Xrotation Zrotation
       JOINT RightElbow
       {
        OFFSET -30.272209 0.000000 0.000000
        CHANNELS 3 Yrotation Xrotation Zrotation
        JOINT RightWrist
        {
         OFFSET -24.478199 0.000000 0.000000
         CHANNELS 3 Yrotation Xrotation Zrotation
         End Site
         {
          OFFSET -18.090752 0.000000 0.000000
         }
        }
       }
      }
     }
     JOINT LeftCollar
     {
      OFFSET 2.923010 9.499495 0.000000
      CHANNELS 3 Yrotation Xrotation Zrotation
      JOINT LeftShoulder
      {
       OFFSET 13.795216 0.000000 0.000000
       CHANNELS 3 Yrotation Xrotation Zrotation
       JOINT LeftElbow
       {
        OFFSET 30.272209 0.000000 0.000000
        CHANNELS 3 Yrotation Xrotation Zrotation
        JOINT LeftWrist
        {
         OFFSET 24.478199 0.000000 0.000000
         CHANNELS 3 Yrotation Xrotation Zrotation
         End Site
         {
          OFFSET 18.090752 0.000000 0.000000
         }
        }
       }
      }
     }
    }
   }
  }
 }
 JOINT RightHip
 {
  OFFSET -7.826875 0.019532 0.001973
  CHANNELS 3 Yrotation Xrotation Zrotation
  JOINT RightKnee
  {
   OFFSET 0.000000 -40.546152 -0.001885
   CHANNELS 3 Yrotation Xrotation Zrotation
   JOINT RightAnkle
   {
    OFFSET 0.000000 -39.417092 -0.003189
    CHANNELS 3 Yrotation Xrotation Zrotation
    JOINT RightToe
    {
     OFFSET 0.000000 -7.579396 17.243563
     CHANNELS 3 Yrotation Xrotation Zrotation
     End Site
     {
      OFFSET 0.000000 -1.500329 6.694466
     }
    }
   }
  }
 }
 JOINT LeftHip
 {
  OFFSET 7.826875 0.019532 0.001973
  CHANNELS 3 Yrotation Xrotation Zrotation
  JOINT LeftKnee
  {
   OFFSET 0.000000 -40.546152 -0.001885
   CHANNELS 3 Yrotation Xrotation Zrotation
   JOINT LeftAnkle
   {
    OFFSET 0.000000 -39.417092 -0.003189
    CHANNELS 3 Yrotation Xrotation Zrotation
    JOINT LeftToe
    {
     OFFSET 0.000000 -7.579396 17.243563
     CHANNELS 3 Yrotation Xrotation Zrotation
     End Site
     {
      OFFSET 0.000000 -1.500329 6.694466
     }
    }
   }
  }
 }
}
MOTION
Frames: 9
Frame Time: 0.008333
-258.980029 69.864893 201.500728 -23.875795 -6.817637 5.705138 0.234355 13.639759 5.555199 -0.132975 7.923904 2.873125 -0.103606 9.905143 3.597183 -0.132955 7.923908 2.873127 0.289851 20.394186 -10.187530 2.691414 -3.481345 -11.364402 -1.478863 1.734635 -4.374140 -10.755333 -0.449686 71.582301 19.719402 -5.997912 4.474611 13.540086 -6.176039 -5.045771 -0.357325 3.649689 1.331726 3.014432 9.940140 -83.084506 -26.935097 4.633117 -10.236901 -7.658998 0.991040 -0.133627 1.950626 -37.557848 -8.142316 10.976837 71.776178 6.663956 -0.345778 -22.171920 4.308387 -0.273186 -5.556442 -1.961119 6.696075 -1.356123 9.599645 30.249009 67.542939 37.249272 12.595463 -7.891123 -13.216056 13.055180 -37.528441 -38.992517
-259.231769 70.153786 201.586403 -23.292246 -7.027941 5.375125 0.295165 13.799254 6.080263 -0.124371 7.903501 2.869955 -0.093062 9.879578 3.593362 -0.124356 7.903511 2.869958 0.382662 20.385430 -10.262167 2.812730 -3.479344 -11.476505 -1.386777 1.605210 -4.370354 -10.450355 -0.870762 71.563276 19.429884 -6.121955 4.182063 13.348437 -6.188451 -5.029899 -0.258425 3.680249 1.412472 3.071197 9.907519 -83.205195 -26.991598 4.685023 -10.226635 -7.527312 1.028760 0.225077 1.421075 -37.255916 -7.490112 10.045190 72.009585 5.741826 -0.832348 -22.174036 4.426977 -0.038679 -5.831837 -1.883696 6.575078 -1.173485 10.342637 29.620801 67.165531 36.619082 12.236430 -7.421330 -13.647885 12.954917 -37.502406 -38.652578
-259.456249 70.461084 201.654279 -22.810072 -7.098830 5.117768 0.457284 13.806700 6.526264 -0.108881 7.888150 2.866255 -0.073861 9.860275 3.589037 -0.108868 7.888167 2.866260 0.467136 20.360364 -10.331781 2.923810 -3.497119 -11.580532 -1.285741 1.377860 -4.331631 -10.089784 -1.146044 71.501320 19.195338 -6.270366 3.865420 13.065104 -6.200516 -4.966513 -0.166086 3.701680 1.508206 3.179853 9.876739 -83.307159 -27.058666 4.775454 -10.267522 -7.375694 1.063803 0.559777 1.058665 -36.942893 -7.025526 9.216595 71.961925 4.889681 -1.056092 -22.330142 4.628863 -0.063496 -5.842273 -1.916899 6.565772 -1.104972 11.012933 28.967401 66.765674 35.955499 11.839333 -6.944980 -14.171747 12.853889 -37.475435 -38.205936
-259.668458 70.778783 201.721429 -22.319557 -7.178621 4.871835 0.619177 13.808637 6.951477 -0.086010 7.874113 2.863053 -0.045389 9.842556 3.585497 -0.085995 7.874137 2.863060 0.539164 20.325061 -10.397491 3.020277 -3.527701 -11.676778 -1.194596 1.074483 -4.289881 -9.731379 -1.288144 71.419603 19.047536 -6.422410 3.566107 12.721214 -6.198281 -4.861131 -0.095075 3.706692 1.604858 3.299171 9.860357 -83.388080 -27.118308 4.850831 -10.354804 -7.249753 1.087912 0.843269 0.689846 -36.574988 -6.596830 8.289321 71.810024 3.961838 -1.234541 -22.420031 4.807221 -0.084630 -5.862045 -1.940317 6.526117 -1.029559 11.648305 28.313048 66.355855 35.278694 11.492256 -6.437213 -14.706234 12.715157 -37.461292 -37.738629
-259.861118 71.100958 201.786972 -21.813731 -7.252227 4.667516 0.771044 13.796956 7.332549 -0.057646 7.857474 2.860748 -0.010034 9.821540 3.583195 -0.057627 7.857501 2.860758 0.598712 20.286481 -10.458582 3.101835 -3.563095 -11.764425 -1.118838 0.748208 -4.267725 -9.431491 -1.353283 71.334004 18.998258 -6.548870 3.324581 12.361416 -6.177723 -4.728076 -0.040468 3.695191 1.694909 3.367564 9.867986 -83.454152 -27.151631 4.848161 -10.473381 -7.176233 1.081981 1.053266 0.320711 -36.176352 -6.246900 7.319025 71.562743 3.001992 -1.365285 -22.448693 4.981100 -0.100429 -5.890238 -1.970153 6.434928 -0.967804 12.196716 27.672135 65.956105 34.596467 11.236460 -5.907905 -15.199093 12.544929 -37.450051 -37.299051
-260.014577 71.426458 201.852995 -21.271032 -7.293178 4.611349 0.864865 13.749119 7.564445 -0.027042 7.835921 2.858382 0.028086 9.794363 3.580850 -0.027017 7.835950 2.858392 0.653440 20.247751 -10.515199 3.177012 -3.599306 -11.845647 -1.050229 0.455361 -4.273387 -9.222719 -1.405865 71.244185 19.036883 -6.637364 3.172408 12.035157 -6.145820 -4.579234 0.012136 3.675280 1.777643 3.363847 9.889508 -83.508534 -27.137199 4.733005 -10.624414 -7.159154 1.031885 1.173080 0.004208 -35.802329 -6.117402 6.427281 71.264246 2.102232 -1.477129 -22.431180 5.197197 -0.105731 -5.932018 -2.029297 6.263243 -0.936410 12.538966 27.039014 65.576900 33.890298 11.023811 -5.396026 -15.559896 12.380880 -37.459598 -36.921505
-260.147859 71.755569 201.917564 -20.727641 -7.326869 4.596513 0.956215 13.693254 7.766325 0.004405 7.808714 2.854843 0.067190 9.760114 3.577038 0.004435 7.808744 2.854854 0.717034 20.207425 -10.568953 3.261479 -3.637203 -11.925907 -0.985993 0.234378 -4.304137 -9.102873 -1.494435 71.142110 19.143677 -6.693662 3.120123 11.782485 -6.109441 -4.423303 0.070624 3.654138 1.853537 3.323964 9.909496 -83.547184 -27.057330 4.518246 -10.822896 -7.189244 0.942298 1.192961 -0.313596 -35.428552 -6.042401 5.628471 70.914676 1.265218 -1.592099 -22.336298 5.475880 -0.105703 -6.014689 -2.138506 6.045630 -0.918625 12.789527 26.412479 65.216596 33.157198 10.933909 -4.904124 -15.738849 12.181773 -37.455837 -36.665759
-260.236387 72.093244 201.988211 -20.181513 -7.337715 4.779381 0.994944 13.616605 7.775878 0.037713 7.776531 2.850247 0.108561 9.719633 3.571925 0.037747 7.776563 2.850259 0.801252 20.160261 -10.626387 3.370048 -3.681555 -12.016070 -0.930174 0.096393 -4.357378 -9.051813 -1.646764 71.020929 19.297566 -6.718202 3.159617 11.621801 -6.077095 -4.271930 0.137443 3.635546 1.921442 3.291481 9.921341 -83.567353 -26.913593 4.240313 -11.074611 -7.242689 0.827260 1.114339 -0.508526 -35.102162 -6.233522 5.033223 70.571856 0.591108 -1.759794 -22.188133 5.837920 -0.091611 -6.140085 -2.291381 5.799965 -0.909847 12.798284 25.787711 64.863125 32.405992 10.867497 -4.450938 -15.816742 12.026339 -37.428517 -36.462530
-260.294664 72.442945 202.064660 -19.658944 -7.342445 5.088203 1.012746 13.536730 7.666445 0.074307 7.741468 2.844570 0.154000 9.675527 3.565518 0.074342 7.741503 2.844584 0.912419 20.100735 -10.696732 3.512196 -3.737363 -12.128868 -0.884473 0.027947 -4.430000 -9.049177 -1.872167 70.877265 19.473565 -6.703841 3.274066 11.554025 -6.056202 -4.139826 0.216703 3.624548 1.981138 3.289258 9.922096 -83.567480 -26.728824 3.931701 -11.372334 -7.285226 0.704380 0.950171 -0.594163 -34.788489 -6.605714 4.622166 70.214905 0.100073 -1.972835 -21.992988 6.226879 -0.066331 -6.294540 -2.459166 5.567975 -0.890674 12.655335 25.172450 64.496690 31.659747 10.810444 -4.052172 -15.803558 11.889068 -37.369196 -36.300897
